<?xml version="1.0" encoding="UTF-8" standalone="no"?>
<!DOCTYPE svg PUBLIC "-//W3C//DTD SVG 1.1//EN"
 "http://www.w3.org/Graphics/SVG/1.1/DTD/svg11.dtd">
<!-- Generated by graphviz version 2.40.1 (20161225.0304)
 -->
<!-- Title: %3 Pages: 1 -->
<svg width="560pt" height="477pt"
 viewBox="0.00 0.00 560.00 477.00" xmlns="http://www.w3.org/2000/svg" xmlns:xlink="http://www.w3.org/1999/xlink">
<g id="graph0" class="graph" transform="scale(1 1) rotate(0) translate(4 473)">
<title>%3</title>
<g id="clust1" class="cluster">
<title>cluster_0</title>
<polygon fill="transparent" stroke="transparent" points="8,-155 8,-314 61,-314 61,-155 8,-155"/>
<text text-anchor="middle" x="34.5" y="-298.8" font-family="Hilda 10" font-size="14.00" fill="#000000">Input</text>
</g>
<g id="clust2" class="cluster">
<title>cluster_1</title>
<polygon fill="transparent" stroke="transparent" points="117,-134 117,-335 184,-335 184,-134 117,-134"/>
<text text-anchor="middle" x="150.5" y="-319.8" font-family="Hilda 10" font-size="14.00" fill="#000000">Hidden</text>
</g>
<g id="clust3" class="cluster">
<title>cluster_2</title>
<polygon fill="transparent" stroke="transparent" points="240,-134 240,-335 307,-335 307,-134 240,-134"/>
<text text-anchor="middle" x="273.5" y="-319.8" font-family="Hilda 10" font-size="14.00" fill="#000000">Hidden</text>
</g>
<g id="clust4" class="cluster">
<title>cluster_3</title>
<polygon fill="transparent" stroke="transparent" points="363,-8 363,-461 430,-461 430,-8 363,-8"/>
<text text-anchor="middle" x="396.5" y="-445.8" font-family="Hilda 10" font-size="14.00" fill="#000000">Hidden</text>
</g>
<g id="clust5" class="cluster">
<title>cluster_4</title>
<polygon fill="transparent" stroke="transparent" points="486,-8 486,-461 551,-461 551,-8 486,-8"/>
<text text-anchor="middle" x="518.5" y="-445.8" font-family="Hilda 10" font-size="14.00" fill="#000000">Output</text>
</g>
<!-- l00 -->
<g id="node1" class="node">
<title>l00</title>
<ellipse fill="#000000" stroke="transparent" stroke-width="15" cx="34" cy="-223" rx="18" ry="18"/>
</g>
<!-- l10 -->
<g id="node4" class="node">
<title>l10</title>
<ellipse fill="#c0c0c0" stroke="transparent" stroke-width="15" cx="150" cy="-286" rx="18" ry="18"/>
</g>
<!-- l00&#45;&gt;l10 -->
<g id="edge1" class="edge">
<title>l00&#45;&gt;l10</title>
<path fill="none" stroke="#000000" d="M50.1293,-231.7599C70.8197,-242.9969 106.7319,-262.501 129.3852,-274.804"/>
<polygon fill="#000000" stroke="#000000" points="128.7786,-276.466 134.0077,-277.3145 130.4491,-273.3903 128.7786,-276.466"/>
</g>
<!-- l11 -->
<g id="node5" class="node">
<title>l11</title>
<ellipse fill="#c0c0c0" stroke="transparent" stroke-width="15" cx="150" cy="-244" rx="18" ry="18"/>
</g>
<!-- l00&#45;&gt;l11 -->
<g id="edge2" class="edge">
<title>l00&#45;&gt;l11</title>
<path fill="none" stroke="#000000" d="M51.8708,-226.2352C71.9926,-229.878 104.7536,-235.8088 126.8271,-239.8049"/>
<polygon fill="#000000" stroke="#000000" points="126.686,-241.5577 131.9178,-240.7265 127.3095,-238.1137 126.686,-241.5577"/>
</g>
<!-- l12 -->
<g id="node6" class="node">
<title>l12</title>
<ellipse fill="#c0c0c0" stroke="transparent" stroke-width="15" cx="150" cy="-202" rx="18" ry="18"/>
</g>
<!-- l00&#45;&gt;l12 -->
<g id="edge3" class="edge">
<title>l00&#45;&gt;l12</title>
<path fill="none" stroke="#000000" d="M51.8708,-219.7648C71.9926,-216.122 104.7536,-210.1912 126.8271,-206.1951"/>
<polygon fill="#000000" stroke="#000000" points="127.3095,-207.8863 131.9178,-205.2735 126.686,-204.4423 127.3095,-207.8863"/>
</g>
<!-- l13 -->
<g id="node7" class="node">
<title>l13</title>
<ellipse fill="#c0c0c0" stroke="transparent" stroke-width="15" cx="150" cy="-160" rx="18" ry="18"/>
</g>
<!-- l00&#45;&gt;l13 -->
<g id="edge4" class="edge">
<title>l00&#45;&gt;l13</title>
<path fill="none" stroke="#000000" d="M50.1293,-214.2401C70.8197,-203.0031 106.7319,-183.499 129.3852,-171.196"/>
<polygon fill="#000000" stroke="#000000" points="130.4491,-172.6097 134.0077,-168.6855 128.7786,-169.534 130.4491,-172.6097"/>
</g>
<!-- l01 -->
<g id="node2" class="node">
<title>l01</title>
<ellipse fill="#000000" stroke="transparent" stroke-width="15" cx="34" cy="-181" rx="18" ry="18"/>
</g>
<!-- l01&#45;&gt;l10 -->
<g id="edge5" class="edge">
<title>l01&#45;&gt;l10</title>
<path fill="none" stroke="#000000" d="M47.7622,-193.4572C68.98,-212.663 109.6441,-249.471 132.7813,-270.4141"/>
<polygon fill="#000000" stroke="#000000" points="131.7323,-271.8251 136.6137,-273.8831 134.0811,-269.2302 131.7323,-271.8251"/>
</g>
<!-- l01&#45;&gt;l11 -->
<g id="edge6" class="edge">
<title>l01&#45;&gt;l11</title>
<path fill="none" stroke="#000000" d="M50.1293,-189.7599C70.8197,-200.9969 106.7319,-220.501 129.3852,-232.804"/>
<polygon fill="#000000" stroke="#000000" points="128.7786,-234.466 134.0077,-235.3145 130.4491,-231.3903 128.7786,-234.466"/>
</g>
<!-- l01&#45;&gt;l12 -->
<g id="edge7" class="edge">
<title>l01&#45;&gt;l12</title>
<path fill="none" stroke="#000000" d="M51.8708,-184.2352C71.9926,-187.878 104.7536,-193.8088 126.8271,-197.8049"/>
<polygon fill="#000000" stroke="#000000" points="126.686,-199.5577 131.9178,-198.7265 127.3095,-196.1137 126.686,-199.5577"/>
</g>
<!-- l01&#45;&gt;l13 -->
<g id="edge8" class="edge">
<title>l01&#45;&gt;l13</title>
<path fill="none" stroke="#000000" d="M51.8708,-177.7648C71.9926,-174.122 104.7536,-168.1912 126.8271,-164.1951"/>
<polygon fill="#000000" stroke="#000000" points="127.3095,-165.8863 131.9178,-163.2735 126.686,-162.4423 127.3095,-165.8863"/>
</g>
<!-- l02 -->
<g id="node3" class="node">
<title>l02</title>
<ellipse fill="#000000" stroke="transparent" stroke-width="15" cx="34" cy="-265" rx="18" ry="18"/>
</g>
<!-- l02&#45;&gt;l10 -->
<g id="edge9" class="edge">
<title>l02&#45;&gt;l10</title>
<path fill="none" stroke="#000000" d="M51.8708,-268.2352C71.9926,-271.878 104.7536,-277.8088 126.8271,-281.8049"/>
<polygon fill="#000000" stroke="#000000" points="126.686,-283.5577 131.9178,-282.7265 127.3095,-280.1137 126.686,-283.5577"/>
</g>
<!-- l02&#45;&gt;l11 -->
<g id="edge10" class="edge">
<title>l02&#45;&gt;l11</title>
<path fill="none" stroke="#000000" d="M51.8708,-261.7648C71.9926,-258.122 104.7536,-252.1912 126.8271,-248.1951"/>
<polygon fill="#000000" stroke="#000000" points="127.3095,-249.8863 131.9178,-247.2735 126.686,-246.4423 127.3095,-249.8863"/>
</g>
<!-- l02&#45;&gt;l12 -->
<g id="edge11" class="edge">
<title>l02&#45;&gt;l12</title>
<path fill="none" stroke="#000000" d="M50.1293,-256.2401C70.8197,-245.0031 106.7319,-225.499 129.3852,-213.196"/>
<polygon fill="#000000" stroke="#000000" points="130.4491,-214.6097 134.0077,-210.6855 128.7786,-211.534 130.4491,-214.6097"/>
</g>
<!-- l02&#45;&gt;l13 -->
<g id="edge12" class="edge">
<title>l02&#45;&gt;l13</title>
<path fill="none" stroke="#000000" d="M47.7622,-252.5428C68.98,-233.337 109.6441,-196.529 132.7813,-175.5859"/>
<polygon fill="#000000" stroke="#000000" points="134.0811,-176.7698 136.6137,-172.1169 131.7323,-174.1749 134.0811,-176.7698"/>
</g>
<!-- l20 -->
<g id="node8" class="node">
<title>l20</title>
<ellipse fill="#c0c0c0" stroke="transparent" stroke-width="15" cx="273" cy="-286" rx="18" ry="18"/>
</g>
<!-- l10&#45;&gt;l20 -->
<g id="edge13" class="edge">
<title>l10&#45;&gt;l20</title>
<path fill="none" stroke="#000000" d="M168.1491,-286C189.7691,-286 225.9322,-286 249.6262,-286"/>
<polygon fill="#000000" stroke="#000000" points="249.7765,-287.7501 254.7765,-286 249.7764,-284.2501 249.7765,-287.7501"/>
</g>
<!-- l21 -->
<g id="node9" class="node">
<title>l21</title>
<ellipse fill="#c0c0c0" stroke="transparent" stroke-width="15" cx="273" cy="-244" rx="18" ry="18"/>
</g>
<!-- l10&#45;&gt;l21 -->
<g id="edge14" class="edge">
<title>l10&#45;&gt;l21</title>
<path fill="none" stroke="#000000" d="M167.1026,-280.1601C188.9184,-272.7108 226.6936,-259.812 250.7351,-251.6027"/>
<polygon fill="#000000" stroke="#000000" points="251.4799,-253.1976 255.6461,-249.9257 250.3488,-249.8854 251.4799,-253.1976"/>
</g>
<!-- l22 -->
<g id="node10" class="node">
<title>l22</title>
<ellipse fill="#c0c0c0" stroke="transparent" stroke-width="15" cx="273" cy="-202" rx="18" ry="18"/>
</g>
<!-- l10&#45;&gt;l22 -->
<g id="edge15" class="edge">
<title>l10&#45;&gt;l22</title>
<path fill="none" stroke="#000000" d="M165.0822,-275.7C187.306,-260.5227 228.8636,-232.1419 253.4163,-215.3742"/>
<polygon fill="#000000" stroke="#000000" points="254.6523,-216.6493 257.7944,-212.3843 252.6785,-213.759 254.6523,-216.6493"/>
</g>
<!-- l23 -->
<g id="node11" class="node">
<title>l23</title>
<ellipse fill="#c0c0c0" stroke="transparent" stroke-width="15" cx="273" cy="-160" rx="18" ry="18"/>
</g>
<!-- l10&#45;&gt;l23 -->
<g id="edge16" class="edge">
<title>l10&#45;&gt;l23</title>
<path fill="none" stroke="#000000" d="M162.6999,-272.9904C185.1648,-249.9776 231.8754,-202.1276 256.6884,-176.7095"/>
<polygon fill="#000000" stroke="#000000" points="257.9445,-177.928 260.1849,-173.1276 255.44,-175.4831 257.9445,-177.928"/>
</g>
<!-- l11&#45;&gt;l20 -->
<g id="edge17" class="edge">
<title>l11&#45;&gt;l20</title>
<path fill="none" stroke="#000000" d="M167.1026,-249.8399C188.9184,-257.2892 226.6936,-270.188 250.7351,-278.3973"/>
<polygon fill="#000000" stroke="#000000" points="250.3488,-280.1146 255.6461,-280.0743 251.4799,-276.8024 250.3488,-280.1146"/>
</g>
<!-- l11&#45;&gt;l21 -->
<g id="edge18" class="edge">
<title>l11&#45;&gt;l21</title>
<path fill="none" stroke="#000000" d="M168.1491,-244C189.7691,-244 225.9322,-244 249.6262,-244"/>
<polygon fill="#000000" stroke="#000000" points="249.7765,-245.7501 254.7765,-244 249.7764,-242.2501 249.7765,-245.7501"/>
</g>
<!-- l11&#45;&gt;l22 -->
<g id="edge19" class="edge">
<title>l11&#45;&gt;l22</title>
<path fill="none" stroke="#000000" d="M167.1026,-238.1601C188.9184,-230.7108 226.6936,-217.812 250.7351,-209.6027"/>
<polygon fill="#000000" stroke="#000000" points="251.4799,-211.1976 255.6461,-207.9257 250.3488,-207.8854 251.4799,-211.1976"/>
</g>
<!-- l11&#45;&gt;l23 -->
<g id="edge20" class="edge">
<title>l11&#45;&gt;l23</title>
<path fill="none" stroke="#000000" d="M165.0822,-233.7C187.306,-218.5227 228.8636,-190.1419 253.4163,-173.3742"/>
<polygon fill="#000000" stroke="#000000" points="254.6523,-174.6493 257.7944,-170.3843 252.6785,-171.759 254.6523,-174.6493"/>
</g>
<!-- l12&#45;&gt;l20 -->
<g id="edge21" class="edge">
<title>l12&#45;&gt;l20</title>
<path fill="none" stroke="#000000" d="M165.0822,-212.3C187.306,-227.4773 228.8636,-255.8581 253.4163,-272.6258"/>
<polygon fill="#000000" stroke="#000000" points="252.6785,-274.241 257.7944,-275.6157 254.6523,-271.3507 252.6785,-274.241"/>
</g>
<!-- l12&#45;&gt;l21 -->
<g id="edge22" class="edge">
<title>l12&#45;&gt;l21</title>
<path fill="none" stroke="#000000" d="M167.1026,-207.8399C188.9184,-215.2892 226.6936,-228.188 250.7351,-236.3973"/>
<polygon fill="#000000" stroke="#000000" points="250.3488,-238.1146 255.6461,-238.0743 251.4799,-234.8024 250.3488,-238.1146"/>
</g>
<!-- l12&#45;&gt;l22 -->
<g id="edge23" class="edge">
<title>l12&#45;&gt;l22</title>
<path fill="none" stroke="#000000" d="M168.1491,-202C189.7691,-202 225.9322,-202 249.6262,-202"/>
<polygon fill="#000000" stroke="#000000" points="249.7765,-203.7501 254.7765,-202 249.7764,-200.2501 249.7765,-203.7501"/>
</g>
<!-- l12&#45;&gt;l23 -->
<g id="edge24" class="edge">
<title>l12&#45;&gt;l23</title>
<path fill="none" stroke="#000000" d="M167.1026,-196.1601C188.9184,-188.7108 226.6936,-175.812 250.7351,-167.6027"/>
<polygon fill="#000000" stroke="#000000" points="251.4799,-169.1976 255.6461,-165.9257 250.3488,-165.8854 251.4799,-169.1976"/>
</g>
<!-- l13&#45;&gt;l20 -->
<g id="edge25" class="edge">
<title>l13&#45;&gt;l20</title>
<path fill="none" stroke="#000000" d="M162.6999,-173.0096C185.1648,-196.0224 231.8754,-243.8724 256.6884,-269.2905"/>
<polygon fill="#000000" stroke="#000000" points="255.44,-270.5169 260.1849,-272.8724 257.9445,-268.072 255.44,-270.5169"/>
</g>
<!-- l13&#45;&gt;l21 -->
<g id="edge26" class="edge">
<title>l13&#45;&gt;l21</title>
<path fill="none" stroke="#000000" d="M165.0822,-170.3C187.306,-185.4773 228.8636,-213.8581 253.4163,-230.6258"/>
<polygon fill="#000000" stroke="#000000" points="252.6785,-232.241 257.7944,-233.6157 254.6523,-229.3507 252.6785,-232.241"/>
</g>
<!-- l13&#45;&gt;l22 -->
<g id="edge27" class="edge">
<title>l13&#45;&gt;l22</title>
<path fill="none" stroke="#000000" d="M167.1026,-165.8399C188.9184,-173.2892 226.6936,-186.188 250.7351,-194.3973"/>
<polygon fill="#000000" stroke="#000000" points="250.3488,-196.1146 255.6461,-196.0743 251.4799,-192.8024 250.3488,-196.1146"/>
</g>
<!-- l13&#45;&gt;l23 -->
<g id="edge28" class="edge">
<title>l13&#45;&gt;l23</title>
<path fill="none" stroke="#000000" d="M168.1491,-160C189.7691,-160 225.9322,-160 249.6262,-160"/>
<polygon fill="#000000" stroke="#000000" points="249.7765,-161.7501 254.7765,-160 249.7764,-158.2501 249.7765,-161.7501"/>
</g>
<!-- l30 -->
<g id="node12" class="node">
<title>l30</title>
<ellipse fill="#c0c0c0" stroke="transparent" stroke-width="15" cx="396" cy="-244" rx="18" ry="18"/>
</g>
<!-- l20&#45;&gt;l30 -->
<g id="edge29" class="edge">
<title>l20&#45;&gt;l30</title>
<path fill="none" stroke="#000000" d="M290.1026,-280.1601C311.9184,-272.7108 349.6936,-259.812 373.7351,-251.6027"/>
<polygon fill="#000000" stroke="#000000" points="374.4799,-253.1976 378.6461,-249.9257 373.3488,-249.8854 374.4799,-253.1976"/>
</g>
<!-- l31 -->
<g id="node13" class="node">
<title>l31</title>
<ellipse fill="#c0c0c0" stroke="transparent" stroke-width="15" cx="396" cy="-202" rx="18" ry="18"/>
</g>
<!-- l20&#45;&gt;l31 -->
<g id="edge30" class="edge">
<title>l20&#45;&gt;l31</title>
<path fill="none" stroke="#000000" d="M288.0822,-275.7C310.306,-260.5227 351.8636,-232.1419 376.4163,-215.3742"/>
<polygon fill="#000000" stroke="#000000" points="377.6523,-216.6493 380.7944,-212.3843 375.6785,-213.759 377.6523,-216.6493"/>
</g>
<!-- l32 -->
<g id="node14" class="node">
<title>l32</title>
<ellipse fill="#c0c0c0" stroke="transparent" stroke-width="15" cx="396" cy="-160" rx="18" ry="18"/>
</g>
<!-- l20&#45;&gt;l32 -->
<g id="edge31" class="edge">
<title>l20&#45;&gt;l32</title>
<path fill="none" stroke="#000000" d="M285.6999,-272.9904C308.1648,-249.9776 354.8754,-202.1276 379.6884,-176.7095"/>
<polygon fill="#000000" stroke="#000000" points="380.9445,-177.928 383.1849,-173.1276 378.44,-175.4831 380.9445,-177.928"/>
</g>
<!-- l33 -->
<g id="node15" class="node">
<title>l33</title>
<ellipse fill="#c0c0c0" stroke="transparent" stroke-width="15" cx="396" cy="-118" rx="18" ry="18"/>
</g>
<!-- l20&#45;&gt;l33 -->
<g id="edge32" class="edge">
<title>l20&#45;&gt;l33</title>
<path fill="none" stroke="#000000" d="M283.7003,-271.385C305.9629,-240.9776 357.2536,-170.9219 382.0607,-137.0391"/>
<polygon fill="#000000" stroke="#000000" points="383.6952,-137.769 385.2369,-132.7009 380.8711,-135.7014 383.6952,-137.769"/>
</g>
<!-- l34 -->
<g id="node16" class="node">
<title>l34</title>
<ellipse fill="#c0c0c0" stroke="transparent" stroke-width="15" cx="396" cy="-76" rx="18" ry="18"/>
</g>
<!-- l20&#45;&gt;l34 -->
<g id="edge33" class="edge">
<title>l20&#45;&gt;l34</title>
<path fill="none" stroke="#000000" d="M282.245,-270.2159C304.2922,-232.5743 359.9297,-137.5835 384.2813,-96.0075"/>
<polygon fill="#000000" stroke="#000000" points="385.7985,-96.8797 386.8155,-91.6808 382.7784,-95.1108 385.7985,-96.8797"/>
</g>
<!-- l35 -->
<g id="node17" class="node">
<title>l35</title>
<ellipse fill="#c0c0c0" stroke="transparent" stroke-width="15" cx="396" cy="-34" rx="18" ry="18"/>
</g>
<!-- l20&#45;&gt;l35 -->
<g id="edge34" class="edge">
<title>l20&#45;&gt;l35</title>
<path fill="none" stroke="#000000" d="M281.0704,-269.4656C302.7125,-225.1255 362.0113,-103.6353 385.8645,-54.7653"/>
<polygon fill="#000000" stroke="#000000" points="387.4393,-55.5287 388.0598,-50.2677 384.2939,-53.9934 387.4393,-55.5287"/>
</g>
<!-- l36 -->
<g id="node18" class="node">
<title>l36</title>
<ellipse fill="#c0c0c0" stroke="transparent" stroke-width="15" cx="396" cy="-412" rx="18" ry="18"/>
</g>
<!-- l20&#45;&gt;l36 -->
<g id="edge35" class="edge">
<title>l20&#45;&gt;l36</title>
<path fill="none" stroke="#000000" d="M285.6999,-299.0096C308.1648,-322.0224 354.8754,-369.8724 379.6884,-395.2905"/>
<polygon fill="#000000" stroke="#000000" points="378.44,-396.5169 383.1849,-398.8724 380.9445,-394.072 378.44,-396.5169"/>
</g>
<!-- l37 -->
<g id="node19" class="node">
<title>l37</title>
<ellipse fill="#c0c0c0" stroke="transparent" stroke-width="15" cx="396" cy="-370" rx="18" ry="18"/>
</g>
<!-- l20&#45;&gt;l37 -->
<g id="edge36" class="edge">
<title>l20&#45;&gt;l37</title>
<path fill="none" stroke="#000000" d="M288.0822,-296.3C310.306,-311.4773 351.8636,-339.8581 376.4163,-356.6258"/>
<polygon fill="#000000" stroke="#000000" points="375.6785,-358.241 380.7944,-359.6157 377.6523,-355.3507 375.6785,-358.241"/>
</g>
<!-- l38 -->
<g id="node20" class="node">
<title>l38</title>
<ellipse fill="#c0c0c0" stroke="transparent" stroke-width="15" cx="396" cy="-328" rx="18" ry="18"/>
</g>
<!-- l20&#45;&gt;l38 -->
<g id="edge37" class="edge">
<title>l20&#45;&gt;l38</title>
<path fill="none" stroke="#000000" d="M290.1026,-291.8399C311.9184,-299.2892 349.6936,-312.188 373.7351,-320.3973"/>
<polygon fill="#000000" stroke="#000000" points="373.3488,-322.1146 378.6461,-322.0743 374.4799,-318.8024 373.3488,-322.1146"/>
</g>
<!-- l39 -->
<g id="node21" class="node">
<title>l39</title>
<ellipse fill="#c0c0c0" stroke="transparent" stroke-width="15" cx="396" cy="-286" rx="18" ry="18"/>
</g>
<!-- l20&#45;&gt;l39 -->
<g id="edge38" class="edge">
<title>l20&#45;&gt;l39</title>
<path fill="none" stroke="#000000" d="M291.1491,-286C312.7691,-286 348.9322,-286 372.6262,-286"/>
<polygon fill="#000000" stroke="#000000" points="372.7765,-287.7501 377.7765,-286 372.7764,-284.2501 372.7765,-287.7501"/>
</g>
<!-- l21&#45;&gt;l30 -->
<g id="edge39" class="edge">
<title>l21&#45;&gt;l30</title>
<path fill="none" stroke="#000000" d="M291.1491,-244C312.7691,-244 348.9322,-244 372.6262,-244"/>
<polygon fill="#000000" stroke="#000000" points="372.7765,-245.7501 377.7765,-244 372.7764,-242.2501 372.7765,-245.7501"/>
</g>
<!-- l21&#45;&gt;l31 -->
<g id="edge40" class="edge">
<title>l21&#45;&gt;l31</title>
<path fill="none" stroke="#000000" d="M290.1026,-238.1601C311.9184,-230.7108 349.6936,-217.812 373.7351,-209.6027"/>
<polygon fill="#000000" stroke="#000000" points="374.4799,-211.1976 378.6461,-207.9257 373.3488,-207.8854 374.4799,-211.1976"/>
</g>
<!-- l21&#45;&gt;l32 -->
<g id="edge41" class="edge">
<title>l21&#45;&gt;l32</title>
<path fill="none" stroke="#000000" d="M288.0822,-233.7C310.306,-218.5227 351.8636,-190.1419 376.4163,-173.3742"/>
<polygon fill="#000000" stroke="#000000" points="377.6523,-174.6493 380.7944,-170.3843 375.6785,-171.759 377.6523,-174.6493"/>
</g>
<!-- l21&#45;&gt;l33 -->
<g id="edge42" class="edge">
<title>l21&#45;&gt;l33</title>
<path fill="none" stroke="#000000" d="M285.6999,-230.9904C308.1648,-207.9776 354.8754,-160.1276 379.6884,-134.7095"/>
<polygon fill="#000000" stroke="#000000" points="380.9445,-135.928 383.1849,-131.1276 378.44,-133.4831 380.9445,-135.928"/>
</g>
<!-- l21&#45;&gt;l34 -->
<g id="edge43" class="edge">
<title>l21&#45;&gt;l34</title>
<path fill="none" stroke="#000000" d="M283.7003,-229.385C305.9629,-198.9776 357.2536,-128.9219 382.0607,-95.0391"/>
<polygon fill="#000000" stroke="#000000" points="383.6952,-95.769 385.2369,-90.7009 380.8711,-93.7014 383.6952,-95.769"/>
</g>
<!-- l21&#45;&gt;l35 -->
<g id="edge44" class="edge">
<title>l21&#45;&gt;l35</title>
<path fill="none" stroke="#000000" d="M282.245,-228.2159C304.2922,-190.5743 359.9297,-95.5835 384.2813,-54.0075"/>
<polygon fill="#000000" stroke="#000000" points="385.7985,-54.8797 386.8155,-49.6808 382.7784,-53.1108 385.7985,-54.8797"/>
</g>
<!-- l21&#45;&gt;l36 -->
<g id="edge45" class="edge">
<title>l21&#45;&gt;l36</title>
<path fill="none" stroke="#000000" d="M283.7003,-258.615C305.9629,-289.0224 357.2536,-359.0781 382.0607,-392.9609"/>
<polygon fill="#000000" stroke="#000000" points="380.8711,-394.2986 385.2369,-397.2991 383.6952,-392.231 380.8711,-394.2986"/>
</g>
<!-- l21&#45;&gt;l37 -->
<g id="edge46" class="edge">
<title>l21&#45;&gt;l37</title>
<path fill="none" stroke="#000000" d="M285.6999,-257.0096C308.1648,-280.0224 354.8754,-327.8724 379.6884,-353.2905"/>
<polygon fill="#000000" stroke="#000000" points="378.44,-354.5169 383.1849,-356.8724 380.9445,-352.072 378.44,-354.5169"/>
</g>
<!-- l21&#45;&gt;l38 -->
<g id="edge47" class="edge">
<title>l21&#45;&gt;l38</title>
<path fill="none" stroke="#000000" d="M288.0822,-254.3C310.306,-269.4773 351.8636,-297.8581 376.4163,-314.6258"/>
<polygon fill="#000000" stroke="#000000" points="375.6785,-316.241 380.7944,-317.6157 377.6523,-313.3507 375.6785,-316.241"/>
</g>
<!-- l21&#45;&gt;l39 -->
<g id="edge48" class="edge">
<title>l21&#45;&gt;l39</title>
<path fill="none" stroke="#000000" d="M290.1026,-249.8399C311.9184,-257.2892 349.6936,-270.188 373.7351,-278.3973"/>
<polygon fill="#000000" stroke="#000000" points="373.3488,-280.1146 378.6461,-280.0743 374.4799,-276.8024 373.3488,-280.1146"/>
</g>
<!-- l22&#45;&gt;l30 -->
<g id="edge49" class="edge">
<title>l22&#45;&gt;l30</title>
<path fill="none" stroke="#000000" d="M290.1026,-207.8399C311.9184,-215.2892 349.6936,-228.188 373.7351,-236.3973"/>
<polygon fill="#000000" stroke="#000000" points="373.3488,-238.1146 378.6461,-238.0743 374.4799,-234.8024 373.3488,-238.1146"/>
</g>
<!-- l22&#45;&gt;l31 -->
<g id="edge50" class="edge">
<title>l22&#45;&gt;l31</title>
<path fill="none" stroke="#000000" d="M291.1491,-202C312.7691,-202 348.9322,-202 372.6262,-202"/>
<polygon fill="#000000" stroke="#000000" points="372.7765,-203.7501 377.7765,-202 372.7764,-200.2501 372.7765,-203.7501"/>
</g>
<!-- l22&#45;&gt;l32 -->
<g id="edge51" class="edge">
<title>l22&#45;&gt;l32</title>
<path fill="none" stroke="#000000" d="M290.1026,-196.1601C311.9184,-188.7108 349.6936,-175.812 373.7351,-167.6027"/>
<polygon fill="#000000" stroke="#000000" points="374.4799,-169.1976 378.6461,-165.9257 373.3488,-165.8854 374.4799,-169.1976"/>
</g>
<!-- l22&#45;&gt;l33 -->
<g id="edge52" class="edge">
<title>l22&#45;&gt;l33</title>
<path fill="none" stroke="#000000" d="M288.0822,-191.7C310.306,-176.5227 351.8636,-148.1419 376.4163,-131.3742"/>
<polygon fill="#000000" stroke="#000000" points="377.6523,-132.6493 380.7944,-128.3843 375.6785,-129.759 377.6523,-132.6493"/>
</g>
<!-- l22&#45;&gt;l34 -->
<g id="edge53" class="edge">
<title>l22&#45;&gt;l34</title>
<path fill="none" stroke="#000000" d="M285.6999,-188.9904C308.1648,-165.9776 354.8754,-118.1276 379.6884,-92.7095"/>
<polygon fill="#000000" stroke="#000000" points="380.9445,-93.928 383.1849,-89.1276 378.44,-91.4831 380.9445,-93.928"/>
</g>
<!-- l22&#45;&gt;l35 -->
<g id="edge54" class="edge">
<title>l22&#45;&gt;l35</title>
<path fill="none" stroke="#000000" d="M283.7003,-187.385C305.9629,-156.9776 357.2536,-86.9219 382.0607,-53.0391"/>
<polygon fill="#000000" stroke="#000000" points="383.6952,-53.769 385.2369,-48.7009 380.8711,-51.7014 383.6952,-53.769"/>
</g>
<!-- l22&#45;&gt;l36 -->
<g id="edge55" class="edge">
<title>l22&#45;&gt;l36</title>
<path fill="none" stroke="#000000" d="M282.245,-217.7841C304.2922,-255.4257 359.9297,-350.4165 384.2813,-391.9925"/>
<polygon fill="#000000" stroke="#000000" points="382.7784,-392.8892 386.8155,-396.3192 385.7985,-391.1203 382.7784,-392.8892"/>
</g>
<!-- l22&#45;&gt;l37 -->
<g id="edge56" class="edge">
<title>l22&#45;&gt;l37</title>
<path fill="none" stroke="#000000" d="M283.7003,-216.615C305.9629,-247.0224 357.2536,-317.0781 382.0607,-350.9609"/>
<polygon fill="#000000" stroke="#000000" points="380.8711,-352.2986 385.2369,-355.2991 383.6952,-350.231 380.8711,-352.2986"/>
</g>
<!-- l22&#45;&gt;l38 -->
<g id="edge57" class="edge">
<title>l22&#45;&gt;l38</title>
<path fill="none" stroke="#000000" d="M285.6999,-215.0096C308.1648,-238.0224 354.8754,-285.8724 379.6884,-311.2905"/>
<polygon fill="#000000" stroke="#000000" points="378.44,-312.5169 383.1849,-314.8724 380.9445,-310.072 378.44,-312.5169"/>
</g>
<!-- l22&#45;&gt;l39 -->
<g id="edge58" class="edge">
<title>l22&#45;&gt;l39</title>
<path fill="none" stroke="#000000" d="M288.0822,-212.3C310.306,-227.4773 351.8636,-255.8581 376.4163,-272.6258"/>
<polygon fill="#000000" stroke="#000000" points="375.6785,-274.241 380.7944,-275.6157 377.6523,-271.3507 375.6785,-274.241"/>
</g>
<!-- l23&#45;&gt;l30 -->
<g id="edge59" class="edge">
<title>l23&#45;&gt;l30</title>
<path fill="none" stroke="#000000" d="M288.0822,-170.3C310.306,-185.4773 351.8636,-213.8581 376.4163,-230.6258"/>
<polygon fill="#000000" stroke="#000000" points="375.6785,-232.241 380.7944,-233.6157 377.6523,-229.3507 375.6785,-232.241"/>
</g>
<!-- l23&#45;&gt;l31 -->
<g id="edge60" class="edge">
<title>l23&#45;&gt;l31</title>
<path fill="none" stroke="#000000" d="M290.1026,-165.8399C311.9184,-173.2892 349.6936,-186.188 373.7351,-194.3973"/>
<polygon fill="#000000" stroke="#000000" points="373.3488,-196.1146 378.6461,-196.0743 374.4799,-192.8024 373.3488,-196.1146"/>
</g>
<!-- l23&#45;&gt;l32 -->
<g id="edge61" class="edge">
<title>l23&#45;&gt;l32</title>
<path fill="none" stroke="#000000" d="M291.1491,-160C312.7691,-160 348.9322,-160 372.6262,-160"/>
<polygon fill="#000000" stroke="#000000" points="372.7765,-161.7501 377.7765,-160 372.7764,-158.2501 372.7765,-161.7501"/>
</g>
<!-- l23&#45;&gt;l33 -->
<g id="edge62" class="edge">
<title>l23&#45;&gt;l33</title>
<path fill="none" stroke="#000000" d="M290.1026,-154.1601C311.9184,-146.7108 349.6936,-133.812 373.7351,-125.6027"/>
<polygon fill="#000000" stroke="#000000" points="374.4799,-127.1976 378.6461,-123.9257 373.3488,-123.8854 374.4799,-127.1976"/>
</g>
<!-- l23&#45;&gt;l34 -->
<g id="edge63" class="edge">
<title>l23&#45;&gt;l34</title>
<path fill="none" stroke="#000000" d="M288.0822,-149.7C310.306,-134.5227 351.8636,-106.1419 376.4163,-89.3742"/>
<polygon fill="#000000" stroke="#000000" points="377.6523,-90.6493 380.7944,-86.3843 375.6785,-87.759 377.6523,-90.6493"/>
</g>
<!-- l23&#45;&gt;l35 -->
<g id="edge64" class="edge">
<title>l23&#45;&gt;l35</title>
<path fill="none" stroke="#000000" d="M285.6999,-146.9904C308.1648,-123.9776 354.8754,-76.1276 379.6884,-50.7095"/>
<polygon fill="#000000" stroke="#000000" points="380.9445,-51.928 383.1849,-47.1276 378.44,-49.4831 380.9445,-51.928"/>
</g>
<!-- l23&#45;&gt;l36 -->
<g id="edge65" class="edge">
<title>l23&#45;&gt;l36</title>
<path fill="none" stroke="#000000" d="M281.0704,-176.5344C302.7125,-220.8745 362.0113,-342.3647 385.8645,-391.2347"/>
<polygon fill="#000000" stroke="#000000" points="384.2939,-392.0066 388.0598,-395.7323 387.4393,-390.4713 384.2939,-392.0066"/>
</g>
<!-- l23&#45;&gt;l37 -->
<g id="edge66" class="edge">
<title>l23&#45;&gt;l37</title>
<path fill="none" stroke="#000000" d="M282.245,-175.7841C304.2922,-213.4257 359.9297,-308.4165 384.2813,-349.9925"/>
<polygon fill="#000000" stroke="#000000" points="382.7784,-350.8892 386.8155,-354.3192 385.7985,-349.1203 382.7784,-350.8892"/>
</g>
<!-- l23&#45;&gt;l38 -->
<g id="edge67" class="edge">
<title>l23&#45;&gt;l38</title>
<path fill="none" stroke="#000000" d="M283.7003,-174.615C305.9629,-205.0224 357.2536,-275.0781 382.0607,-308.9609"/>
<polygon fill="#000000" stroke="#000000" points="380.8711,-310.2986 385.2369,-313.2991 383.6952,-308.231 380.8711,-310.2986"/>
</g>
<!-- l23&#45;&gt;l39 -->
<g id="edge68" class="edge">
<title>l23&#45;&gt;l39</title>
<path fill="none" stroke="#000000" d="M285.6999,-173.0096C308.1648,-196.0224 354.8754,-243.8724 379.6884,-269.2905"/>
<polygon fill="#000000" stroke="#000000" points="378.44,-270.5169 383.1849,-272.8724 380.9445,-268.072 378.44,-270.5169"/>
</g>
<!-- l40 -->
<g id="node22" class="node">
<title>l40</title>
<ellipse fill="#000000" stroke="transparent" stroke-width="15" cx="518" cy="-244" rx="18" ry="18"/>
</g>
<!-- l30&#45;&gt;l40 -->
<g id="edge69" class="edge">
<title>l30&#45;&gt;l40</title>
<path fill="none" stroke="#000000" d="M414.0015,-244C435.4458,-244 471.3149,-244 494.8162,-244"/>
<polygon fill="#000000" stroke="#000000" points="494.9247,-245.7501 499.9246,-244 494.9246,-242.2501 494.9247,-245.7501"/>
</g>
<!-- l41 -->
<g id="node23" class="node">
<title>l41</title>
<ellipse fill="#000000" stroke="transparent" stroke-width="15" cx="518" cy="-202" rx="18" ry="18"/>
</g>
<!-- l31&#45;&gt;l41 -->
<g id="edge70" class="edge">
<title>l31&#45;&gt;l41</title>
<path fill="none" stroke="#000000" d="M414.0015,-202C435.4458,-202 471.3149,-202 494.8162,-202"/>
<polygon fill="#000000" stroke="#000000" points="494.9247,-203.7501 499.9246,-202 494.9246,-200.2501 494.9247,-203.7501"/>
</g>
<!-- l42 -->
<g id="node24" class="node">
<title>l42</title>
<ellipse fill="#000000" stroke="transparent" stroke-width="15" cx="518" cy="-160" rx="18" ry="18"/>
</g>
<!-- l32&#45;&gt;l42 -->
<g id="edge71" class="edge">
<title>l32&#45;&gt;l42</title>
<path fill="none" stroke="#000000" d="M414.0015,-160C435.4458,-160 471.3149,-160 494.8162,-160"/>
<polygon fill="#000000" stroke="#000000" points="494.9247,-161.7501 499.9246,-160 494.9246,-158.2501 494.9247,-161.7501"/>
</g>
<!-- l43 -->
<g id="node25" class="node">
<title>l43</title>
<ellipse fill="#000000" stroke="transparent" stroke-width="15" cx="518" cy="-118" rx="18" ry="18"/>
</g>
<!-- l33&#45;&gt;l43 -->
<g id="edge72" class="edge">
<title>l33&#45;&gt;l43</title>
<path fill="none" stroke="#000000" d="M414.0015,-118C435.4458,-118 471.3149,-118 494.8162,-118"/>
<polygon fill="#000000" stroke="#000000" points="494.9247,-119.7501 499.9246,-118 494.9246,-116.2501 494.9247,-119.7501"/>
</g>
<!-- l44 -->
<g id="node26" class="node">
<title>l44</title>
<ellipse fill="#000000" stroke="transparent" stroke-width="15" cx="518" cy="-76" rx="18" ry="18"/>
</g>
<!-- l34&#45;&gt;l44 -->
<g id="edge73" class="edge">
<title>l34&#45;&gt;l44</title>
<path fill="none" stroke="#000000" d="M414.0015,-76C435.4458,-76 471.3149,-76 494.8162,-76"/>
<polygon fill="#000000" stroke="#000000" points="494.9247,-77.7501 499.9246,-76 494.9246,-74.2501 494.9247,-77.7501"/>
</g>
<!-- l45 -->
<g id="node27" class="node">
<title>l45</title>
<ellipse fill="#000000" stroke="transparent" stroke-width="15" cx="518" cy="-34" rx="18" ry="18"/>
</g>
<!-- l35&#45;&gt;l45 -->
<g id="edge74" class="edge">
<title>l35&#45;&gt;l45</title>
<path fill="none" stroke="#000000" d="M414.0015,-34C435.4458,-34 471.3149,-34 494.8162,-34"/>
<polygon fill="#000000" stroke="#000000" points="494.9247,-35.7501 499.9246,-34 494.9246,-32.2501 494.9247,-35.7501"/>
</g>
<!-- l46 -->
<g id="node28" class="node">
<title>l46</title>
<ellipse fill="#000000" stroke="transparent" stroke-width="15" cx="518" cy="-412" rx="18" ry="18"/>
</g>
<!-- l36&#45;&gt;l46 -->
<g id="edge75" class="edge">
<title>l36&#45;&gt;l46</title>
<path fill="none" stroke="#000000" d="M414.0015,-412C435.4458,-412 471.3149,-412 494.8162,-412"/>
<polygon fill="#000000" stroke="#000000" points="494.9247,-413.7501 499.9246,-412 494.9246,-410.2501 494.9247,-413.7501"/>
</g>
<!-- l47 -->
<g id="node29" class="node">
<title>l47</title>
<ellipse fill="#000000" stroke="transparent" stroke-width="15" cx="518" cy="-370" rx="18" ry="18"/>
</g>
<!-- l37&#45;&gt;l47 -->
<g id="edge76" class="edge">
<title>l37&#45;&gt;l47</title>
<path fill="none" stroke="#000000" d="M414.0015,-370C435.4458,-370 471.3149,-370 494.8162,-370"/>
<polygon fill="#000000" stroke="#000000" points="494.9247,-371.7501 499.9246,-370 494.9246,-368.2501 494.9247,-371.7501"/>
</g>
<!-- l48 -->
<g id="node30" class="node">
<title>l48</title>
<ellipse fill="#000000" stroke="transparent" stroke-width="15" cx="518" cy="-328" rx="18" ry="18"/>
</g>
<!-- l38&#45;&gt;l48 -->
<g id="edge77" class="edge">
<title>l38&#45;&gt;l48</title>
<path fill="none" stroke="#000000" d="M414.0015,-328C435.4458,-328 471.3149,-328 494.8162,-328"/>
<polygon fill="#000000" stroke="#000000" points="494.9247,-329.7501 499.9246,-328 494.9246,-326.2501 494.9247,-329.7501"/>
</g>
<!-- l49 -->
<g id="node31" class="node">
<title>l49</title>
<ellipse fill="#000000" stroke="transparent" stroke-width="15" cx="518" cy="-286" rx="18" ry="18"/>
</g>
<!-- l39&#45;&gt;l49 -->
<g id="edge78" class="edge">
<title>l39&#45;&gt;l49</title>
<path fill="none" stroke="#000000" d="M414.0015,-286C435.4458,-286 471.3149,-286 494.8162,-286"/>
<polygon fill="#000000" stroke="#000000" points="494.9247,-287.7501 499.9246,-286 494.9246,-284.2501 494.9247,-287.7501"/>
</g>
</g>
</svg>
